<?xml version="1.0" standalone="no"?><!DOCTYPE svg PUBLIC "-//W3C//DTD SVG 1.1//EN" "http://www.w3.org/Graphics/SVG/1.1/DTD/svg11.dtd"><svg t="1575292687530" class="icon" viewBox="0 0 1030 1024" version="1.1" xmlns="http://www.w3.org/2000/svg" p-id="29633" xmlns:xlink="http://www.w3.org/1999/xlink" width="201.171875" height="200"><defs><style type="text/css"></style></defs><path d="M1017.6 307.2v-64H960v-57.6c0-57.6-44.8-102.4-102.4-102.4h-83.2V6.4h-64v83.2H544V6.4h-64v83.2H307.2V6.4h-64v83.2h-76.8c-57.6 0-102.4 44.8-102.4 96v57.6H0v64h64V480H0v64h64v172.8H0v64h64v57.6c0 57.6 44.8 102.4 102.4 102.4h83.2v83.2h64v-83.2h172.8v83.2h64v-83.2h172.8v83.2h64v-83.2h83.2c57.6 0 102.4-44.8 102.4-102.4v-57.6h57.6v-64H960V544h57.6v-64H960V307.2h57.6zM896 838.4c0 19.2-19.2 38.4-38.4 38.4H166.4c-19.2 0-38.4-19.2-38.4-38.4V185.6c0-19.2 19.2-38.4 38.4-38.4H864c19.2 0 38.4 19.2 38.4 38.4v652.8zM281.6 352L179.2 640h64l19.2-57.6h108.8L384 640h64l-96-288h-70.4z m-6.4 179.2L313.6 416 352 531.2h-76.8zM620.8 352H486.4v288H544V537.6h70.4c32 0 57.6-12.8 76.8-38.4 12.8-19.2 19.2-38.4 19.2-57.6 0-25.6-6.4-51.2-25.6-70.4-12.8-12.8-38.4-19.2-64-19.2z m25.6 115.2c-6.4 12.8-19.2 19.2-38.4 19.2h-57.6v-83.2h44.8c19.2 0 32 0 38.4 6.4 6.4 6.4 12.8 19.2 12.8 32 6.4 12.8 0 19.2 0 25.6zM748.8 640h57.6V352h-57.6v288z" p-id="29634" fill="#1296db"></path></svg>