<svg version="1.1" width="200.000000" height="200.000000" viewBox="0.000000 0.000000 1024.000000 1024.000000" xmlns="http://www.w3.org/2000/svg" xmlns:xlink="http://www.w3.org/1999/xlink" overflow="hidden"><defs></defs><path d=" M 846.864014 645.874023 C 846.864014 660.301025 852.575989 671.861023 861.153992 680.530029 C 869.732971 689.177002 881.179016 692.067017 892.601990 692.067017 C 904.025024 692.067017 915.471008 689.177002 924.049988 680.530029 C 932.629028 671.861023 938.341003 663.190979 938.341003 645.874023 L 938.341003 412.108002 C 938.463989 399.105011 933.307007 386.608002 924.049988 377.473999 C 915.471008 368.826996 904.025024 365.937988 892.601990 365.937988 C 881.156006 365.937988 869.732971 368.826996 861.153992 377.473999 C 852.575989 386.122009 846.864014 394.790985 846.864014 412.108002 L 846.864014 645.896973 Z M 783.968018 412.108002 C 783.968018 394.813995 786.812988 377.473999 792.523987 365.915009 C 798.257996 354.377991 806.836975 339.973999 818.260010 331.303986 C 829.705994 322.634003 841.151978 316.854004 852.575989 311.096985 C 864.021973 305.316986 878.289001 305.316986 892.601990 305.316986 C 906.893005 305.316986 918.315979 308.183990 932.629028 311.096985 C 944.052002 316.854004 958.343018 322.634003 966.921021 331.303986 C 975.500000 339.950989 984.078979 351.488007 992.658020 365.937988 C 998.369019 380.364014 1001.239990 394.790985 1001.239990 412.131012 L 1001.239990 645.896973 C 1001.239990 663.213989 998.369019 680.552979 992.658020 694.979980 C 986.945984 709.406982 978.367004 720.966980 966.943970 729.614014 C 955.497986 738.260986 944.052002 744.041016 932.629028 749.820984 C 921.182983 755.599976 906.914978 755.599976 892.601990 755.599976 C 878.312012 755.599976 866.888977 752.710999 852.575989 749.820984 C 841.151978 744.041016 826.862000 738.283997 818.260010 729.614014 C 806.836975 720.966980 801.103027 709.406982 792.546997 694.979980 C 786.812988 680.552979 783.968018 666.104004 783.968018 645.896973 L 783.968018 412.108002 Z M 618.150024 365.915009 L 560.966003 365.915009 C 552.387024 365.915009 543.807983 357.268005 543.807983 351.488007 L 543.807983 322.634003 C 543.807983 313.987000 549.541992 308.183990 560.966003 308.183990 L 741.073975 308.183990 C 749.653015 308.183990 758.231995 316.854004 758.231995 322.634003 L 758.231995 351.488007 C 758.231995 360.157990 752.520020 365.937988 741.073975 365.937988 L 683.890015 365.937988 L 683.890015 735.393982 C 683.890015 744.041016 678.200989 749.820984 669.599976 749.820984 L 635.330017 749.820984 C 626.750977 749.820984 621.039978 741.174011 621.039978 735.393982 L 618.172974 365.937988 C 621.039978 365.937988 618.172974 365.937988 618.172974 365.937988 Z M 518.093994 651.677002 C 518.093994 666.104004 515.226990 680.552979 509.515991 692.090027 C 503.562988 703.780029 495.850006 714.486023 486.647003 723.833984 C 478.067993 732.481018 466.622009 741.151001 452.330994 746.931030 C 438.040985 752.710999 426.618011 755.578003 412.304993 755.578003 C 398.014008 755.578003 383.723999 752.710999 372.278015 746.931030 C 360.855011 741.151001 349.408997 735.393982 337.985992 723.833984 C 328.774994 714.487000 321.053986 703.781006 315.093994 692.090027 C 309.404999 680.552979 306.537994 666.104004 306.537994 651.677002 L 306.537994 322.634003 C 306.537994 313.987000 312.226990 308.183990 320.828003 308.183990 L 355.119995 308.183990 C 363.699005 308.183990 369.433990 313.963989 369.433990 325.523987 L 369.433990 648.763977 C 369.433990 666.080994 372.278015 677.640991 380.856995 683.419983 C 389.436005 689.177002 398.014008 694.956970 409.437988 694.956970 C 420.882996 694.956970 429.462006 692.067017 438.040985 683.419983 C 446.619995 674.750977 449.463989 663.190979 449.463989 648.763977 L 449.463989 322.610992 C 449.463989 313.963989 455.199005 305.294006 463.777008 305.294006 L 498.070007 305.294006 C 506.648010 305.294006 512.382996 313.941010 512.382996 319.721008 L 518.072021 651.653992 C 515.226990 651.653992 518.072021 651.653992 518.072021 651.653992 Z M 120.717003 322.610992 C 123.561996 313.963989 132.141006 305.294006 140.718994 305.294006 L 163.589005 305.294006 C 172.167007 305.294006 180.746002 311.074005 183.613007 322.610992 L 275.089996 735.370972 C 277.933990 744.018005 272.222992 752.664978 263.644012 752.664978 L 229.373993 752.664978 C 220.335007 752.549988 212.332993 746.794006 209.350006 738.260986 L 192.192001 657.434021 L 103.559998 657.434021 L 89.269501 735.370972 C 86.402298 744.018005 80.667999 749.797974 69.244797 749.797974 L 34.929699 749.797974 C 26.350901 749.797974 20.639299 744.018005 23.506500 732.481018 C 26.350901 735.370972 120.717003 322.610992 120.717003 322.610992 Z M 149.298004 435.182007 L 117.849998 596.812988 L 180.746002 596.812988 L 149.274994 435.182007 Z M 912.604004 215.820007 C 906.914978 215.820007 901.181030 212.929993 895.468994 210.039993 C 892.601990 210.039993 726.783997 100.360001 512.382996 100.360001 C 297.959015 100.360001 160.720993 207.151001 157.854004 210.039993 C 146.431000 218.688004 132.141006 218.688004 123.561996 210.039993 C 112.664001 202.115997 109.043999 187.501999 114.983002 175.406998 L 186.457993 16.619801 C 192.169006 2.215690 209.350006 -3.564170 223.617004 2.215690 C 237.908005 7.995550 243.641998 25.312401 237.908005 39.762001 L 203.615005 114.764000 C 272.222992 80.130096 375.144989 42.606499 512.382996 42.606499 C 746.786011 42.606499 921.182983 158.067001 929.762024 163.824005 C 944.052002 172.470993 946.919006 189.811005 938.341003 204.238007 C 929.762024 210.018005 921.182983 215.774994 912.627014 215.774994 Z M 841.151978 1024.000000 C 838.284973 1024.000000 832.573975 1024.000000 829.705994 1021.109985 C 815.393005 1015.330017 809.682007 998.013000 815.393005 983.585999 L 849.708008 908.539001 C 783.945007 943.172974 678.177979 980.697021 540.963989 980.697021 C 306.537994 980.697021 132.141006 865.258972 123.561996 859.479004 C 109.271004 850.831970 106.403999 833.492004 114.983002 819.065002 C 123.561996 804.638000 140.697006 801.770996 155.033005 810.418030 C 157.876999 810.418030 323.673004 920.098999 538.096008 920.098999 C 752.520020 920.098999 889.734985 813.307983 892.601990 810.418030 C 904.025024 801.770996 918.315979 801.770996 926.916992 810.418030 C 938.341003 819.065002 941.208008 833.492004 935.473022 845.052002 L 864.021973 1003.789978 C 861.153992 1018.219971 852.575989 1024.000000 841.151978 1024.000000 Z" fill="#1296DB"/></svg>