<?xml version="1.0" standalone="no"?><!DOCTYPE svg PUBLIC "-//W3C//DTD SVG 1.1//EN" "http://www.w3.org/Graphics/SVG/1.1/DTD/svg11.dtd"><svg t="1574264533097" class="icon" viewBox="0 0 1024 1024" version="1.1" xmlns="http://www.w3.org/2000/svg" p-id="10013" xmlns:xlink="http://www.w3.org/1999/xlink" width="200" height="200"><defs><style type="text/css"></style></defs><path d="M588.8 184.32v240.64h245.76c-30.72-112.64-122.88-204.8-245.76-240.64z m281.6 343.04h-281.6c-56.32 0-102.4-46.08-102.4-102.4V148.48c0-40.96 35.84-71.68 76.8-71.68H578.56c184.32 35.84 332.8 179.2 358.4 353.28v15.36c5.12 46.08-25.6 81.92-66.56 81.92z m-10.24 122.88C819.2 834.56 655.36 972.8 460.8 972.8c-225.28 0-409.6-184.32-409.6-414.72C51.2 363.52 189.44 194.56 368.64 153.6h15.36c30.72 0 51.2 25.6 51.2 51.2 0 20.48-15.36 40.96-35.84 51.2C261.12 281.6 153.6 409.6 153.6 558.08 153.6 732.16 291.84 870.4 460.8 870.4c148.48 0 271.36-107.52 302.08-245.76 5.12-20.48 25.6-40.96 51.2-40.96 30.72 0 51.2 25.6 51.2 51.2-5.12 5.12-5.12 10.24-5.12 15.36z" fill="#000000" p-id="10014"></path></svg>