<?xml version="1.0" standalone="no"?><!DOCTYPE svg PUBLIC "-//W3C//DTD SVG 1.1//EN" "http://www.w3.org/Graphics/SVG/1.1/DTD/svg11.dtd"><svg t="1575292285452" class="icon" viewBox="0 0 1316 1024" version="1.1" xmlns="http://www.w3.org/2000/svg" p-id="12915" xmlns:xlink="http://www.w3.org/1999/xlink" width="257.03125" height="200"><defs><style type="text/css"></style></defs><path d="M956.708571 195.072s129.024-1.316571 129.024 126.464c0 0 11.922286 123.611429-129.024 126.390857 0 0-126.317714 2.706286-125.074285-126.390857 0.073143-0.073143-1.316571-114.614857 125.074285-126.537143zM1210.88 0.731429s67.949714 5.339429 67.949714 65.097142v892.854858s-4.096 63.853714-67.949714 65.243428V0.658286zM0 958.756571S2.706286 1024 65.243429 1024h1145.636571v-188.928h-124.854857l-254.390857-258.194286-191.634286 192.877715-260.754286-321.901715-256.731428 384.585143-57.197715 1.243429L63.853714 66.048H0.146286L0 958.756571zM1210.88 0.731429H65.243429S0-0.731429 0 65.828571h1210.88V0.731429z" fill="#1296db" p-id="12916"></path></svg>