<?xml version="1.0" standalone="no"?><!DOCTYPE svg PUBLIC "-//W3C//DTD SVG 1.1//EN" "http://www.w3.org/Graphics/SVG/1.1/DTD/svg11.dtd"><svg t="1575745011984" class="icon" viewBox="0 0 1024 1024" version="1.1" xmlns="http://www.w3.org/2000/svg" p-id="2386" xmlns:xlink="http://www.w3.org/1999/xlink" width="200" height="200"><defs><style type="text/css"></style></defs><path d="M646.656 243.712V156.16c0-14.336 11.776-26.112 26.112-26.112s26.112 11.776 26.112 26.112v87.552h-52.224z m-267.264 0V156.16c0-14.336-11.776-26.112-26.112-26.112s-26.112 11.776-26.112 26.112v87.552h52.224z" fill="#2C2C2C" p-id="2387"></path><path d="M798.72 212.992h-99.84v75.776c0 14.336-11.776 26.112-26.112 26.112s-26.112-11.776-26.112-26.112v-75.776H379.392v75.776c0 14.336-11.776 26.112-26.112 26.112s-26.112-11.776-26.112-26.112v-75.776h-99.84c-40.448 0-73.216 32.768-73.216 73.216v506.88c0 40.448 32.768 73.216 73.216 73.216H798.72c40.448 0 73.216-32.768 73.216-73.216v-506.88c0-40.448-32.768-73.216-73.216-73.216z m-64 480.256H342.528c-14.336 0-26.112-11.776-26.112-26.112s11.776-26.112 26.112-26.112H734.72c14.336 0 26.112 11.776 26.112 26.112s-11.776 26.112-26.112 26.112z m0-157.184H514.048c-14.336 0-26.112-11.776-26.112-26.112s11.776-26.112 26.112-26.112H734.72c14.336 0 26.112 11.776 26.112 26.112s-11.776 26.112-26.112 26.112z" fill="#2C2C2C" p-id="2388"></path></svg>