<?xml version="1.0" standalone="no"?><!DOCTYPE svg PUBLIC "-//W3C//DTD SVG 1.1//EN" "http://www.w3.org/Graphics/SVG/1.1/DTD/svg11.dtd"><svg t="1575292108408" class="icon" viewBox="0 0 1024 1024" version="1.1" xmlns="http://www.w3.org/2000/svg" p-id="4725" width="200" height="200" xmlns:xlink="http://www.w3.org/1999/xlink"><defs><style type="text/css"></style></defs><path d="M712.42557637 558.70314754l-3.49302745-1e-8 0-1.5650055-0.88737362-0.10487142a10.24513948 10.24513948 0 0 0-10.22093837 5.291978 10.02732961 10.02732961 0 0 0-0.80670439 7.61528453c0.74216702 2.51691647 2.40397802 4.58207798 4.66274832 5.84053511l0.21781099 0.12907252c1.37139671 0.73409999 2.94446921 1.12131867 4.54980984 1.12131869 3.79150766 0 7.36520654-2.09742965 9.10768675-5.3484461a10.06766477 10.06766477 0 0 0-2.87186593-12.77819004l-0.25814614-0.20167578zM445.80994781 420.11142227a87.5273696 87.5273696 0 0 0 28.17816568 47.47452269l2.99287141 2.56531867-11.89888232 21.19211083a4.41267029 4.41267029 0 0 0 1.43593297 5.87280434l16.37608887 9.09155266a4.63048017 4.63048017 0 0 0 6.02607797-1.72634612l11.93115045-21.17597676 3.71890436 1.16972089c18.0459658 5.60659227 37.68113815 5.2274406 55.49315999-1.0487154l3.73503842-1.31492746 17.11825591 28.75899317a4.40460325 4.40460325 0 0 0 6.04221203 1.50853626l15.9646702-9.51910542a4.46913953 4.46913953 0 0 0 1.57307255-6.09868127l-17.17472627-28.85579756 2.90413404-2.63792197a87.17242015 87.17242015 0 0 0 17.66681526-21.91007672 88.05172785 88.05172785 0 0 0 9.5191054-26.42761959l0.73410109-3.83184282 33.71215468-0.59696154a4.53367578 4.53367578 0 0 0 4.40460327-4.5336758l-0.1694077-18.4493174a4.33199996 4.33199996 0 0 0-4.32393294-4.30779889l-33.78475794 0.59696156-0.83090552-3.87217911a87.382163 87.382163 0 0 0-28.17816681-47.47452268l-2.98480325-2.57338568 11.90694825-21.20017673a4.39653623 4.39653623 0 0 0-1.60534066-5.98574282l-16.22281414-8.96248016a4.7111505 4.7111505 0 0 0-6.02607796 1.75054725l-11.92308343 21.15984268-3.71890547-1.16972087a88.40667728 88.40667728 0 0 0-55.49315887 1.02451428l-3.71890435 1.32299449-17.13439109-28.79932833a4.54174283 4.54174283 0 0 0-6.05027909-1.50853625l-15.94853499 9.53523945a4.46913953 4.46913953 0 0 0-1.58113957 6.12288239l17.16665811 28.87193163-2.93640218 2.64598902a87.86618609 87.86618609 0 0 0-17.6587471 21.91814376 86.90620807 86.90620807 0 0 0-9.4868384 26.37921623l-0.71796592 3.86411207-33.75248983 0.5888934a4.51754171 4.51754171 0 0 0-4.39653622 4.5336758l0.16940768 18.45738445a4.33199996 4.33199996 0 0 0 4.32393294 4.2916648l33.78475797-0.58889338 0.83897252 3.87217796z m40.99668976-44.51391939c9.17222299-16.37608888 26.40341736-26.54862395 44.96567435-26.54862395a51.38703695 51.38703695 0 0 1 24.66900418 6.35682631 50.53999737 50.53999737 0 0 1 24.12044597 30.45307118 51.06435452 51.06435452 0 0 1-4.67081534 38.91539418 51.45157321 51.45157321 0 0 1-44.76399742 26.21787671 51.58064573 51.58064573 0 0 1-24.69320642-6.37296148 50.7900754 50.7900754 0 0 1-19.62710532-69.02158295z" fill="#1296db" p-id="4726"></path><path d="M512-2.67400939c-280.80555042 0-509.25601997 228.45046956-509.25601997 509.25601998s228.45046956 509.25601997 509.25601997 509.25601997 509.25601997-228.45046956 509.25601997-509.25601997S792.80555042-2.67400939 512-2.67400939z m254.98295944 593.00801599a56.84035447 56.84035447 0 0 1-7.27646919 13.5848933l-0.3952846 0.5404912 5.30811206 8.5349274c2.08129558 3.35588789 2.72665932 7.31680434 1.83121754 11.1567142s-3.23488238 7.09899445-6.59077026 9.16415596l-16.900446 10.57588782a14.60134057 14.60134057 0 0 1-7.88149774 2.26683846 14.63360869 14.63360869 0 0 1-12.0360219-6.30842522l-5.77599884-9.26902743-0.66149779 0.11293847a66.34332692 66.34332692 0 0 1-15.32737351 0.70183297l-0.64536263-0.0484022-2.46851428 4.57401097a14.77074824 14.77074824 0 0 1-19.92558552 6.12288236l-17.57807679-9.26902739a14.7384801 14.7384801 0 0 1-6.08254719-19.8610493l2.50078128-4.62241315-0.41948571-0.5162912a64.14909178 64.14909178 0 0 1-7.94603289-12.95566363l-0.27428023-0.61309562-10.89050211 0.40335276c-7.88149663 0-14.27865811-6.17128457-14.56907129-14.04471416l-0.63729674-20.00625698a14.97242406 14.97242406 0 0 1 14.26252519-15.26283725l10.14026694-0.37915052 0.23394507-0.62116154c0.98417913-2.52498352 2.04096043-4.84022303 3.2187483-7.05059227a57.43731601 57.43731601 0 0 1 4.08192085-6.54236807l0.39528572-0.54855934-5.32424612-8.54299334a14.81108339 14.81108339 0 0 1 4.7595527-20.32893718l16.90044602-10.5436197c2.33944175-1.47626812 5.0499659-2.25877032 7.88956366-2.25877141 5.05803292 0 9.68851312 2.55725163 12.38290541 6.84891645l5.46138456 8.7366021 0.66149783-0.10487143a65.26234343 65.26234343 0 0 1 15.30317239-0.7098989l0.65342964 0.0484022 2.45238021-4.56594391a14.77881527 14.77881527 0 0 1 19.96592072-6.12288236l17.5377416 9.26902739a14.69814494 14.69814494 0 0 1 6.02607799 19.94978665l-2.43624503 4.52560875 0.4194857 0.5162901c3.14614502 3.98511755 5.82440216 8.34938455 7.9460329 12.9717988l0.27427911 0.6130945 10.88243508-0.40335164c7.84922851 0 14.26252406 6.1551505 14.59327351 13.98824494l0.60502747 20.07079213a14.94822296 14.94822296 0 0 1-14.25445703 15.24670317l-10.15640211 0.37915167-0.23394395 0.59696042zM435.96815996 485.86585471l6.14708348-10.89050211-0.43561978-0.53242416a113.7371793 113.7371793 0 0 1-17.11018886-29.11394263l-0.25814619-0.64536374-21.88587562 0.3872187c-12.77012187 0-23.35407672-10.18060323-23.5960877-22.68451301l-0.35495058-37.14871397a23.63642399 23.63642399 0 0 1 22.98299322-23.61222179l21.70033501-0.3952846 0.23394395-0.65343078c1.96029009-5.34844722 4.37233513-10.5920219 7.15546368-15.57745152 2.81539668-4.96929556 6.04221203-9.74498233 9.58364168-14.17378668l0.43561977-0.54855934-11.01957464-18.51385371a23.45088112 23.45088112 0 0 1 8.16384278-31.88900414l31.84866897-19.03821081a23.57995365 23.57995365 0 0 1 17.65068118-2.62985494 23.11206572 23.11206572 0 0 1 14.31899329 10.6404241l11.11637901 18.66712731 0.67763188-0.1210055a117.6174243 117.6174243 0 0 1 33.98643379-0.8147703l0.66956484 0.08067032 6.1067483-10.82596583a23.47508222 23.47508222 0 0 1 31.6873272-9.09961971l32.2681558 17.92495919a22.99106025 22.99106025 0 0 1 10.99537352 13.82690427 23.32987562 23.32987562 0 0 1-2.12163187 17.84428997l-6.04221203 10.77756364 0.43562089 0.53242529a114.06792763 114.06792763 0 0 1 17.03758556 29.10587556l0.25814507 0.64536265 21.92621078-0.36301649c12.77012187 0 23.3460097 10.18060323 23.57995479 22.69258003l0.39528458 37.10031067a23.60415474 23.60415474 0 0 1-23.02332837 23.65255805l-21.68419982 0.38721759-0.24201099 0.64536262a111.83335732 111.83335732 0 0 1-7.12319555 15.56131857 117.49641879 117.49641879 0 0 1-9.59170871 14.20605483l-0.42755385 0.5404912 10.99537465 18.50578666a23.47508222 23.47508222 0 0 1-8.188045 31.90513818l-31.84866899 19.03821195a23.07173057 23.07173057 0 0 1-11.97148448 3.33168679 23.53155144 23.53155144 0 0 1-19.91751963-11.23738452l-11.18898232-18.78813393-0.68569778 0.12100549a116.68971554 116.68971554 0 0 1-33.97030084 0.82283848l-0.66956373-0.08067033-6.11481532 10.8178988a23.45088112 23.45088112 0 0 1-31.68732831 9.05928455l-32.26815468-17.93302733a23.17660201 23.17660201 0 0 1-8.93021203-31.50985359z m404.27964501-17.7313504c-16.71490426 0-30.54987558-13.40741858-30.83222171-29.88837888-1.83121755-142.6817142-120.19887704-258.75833413-263.87283629-258.75833413l-3.55756369 0c-70.30424227 0.88737472-136.16354611 29.03327227-185.43701936 79.25865538-49.23313696 50.19311498-75.86243235 116.32669795-74.98312465 186.21952265 0.04033516 2.19423403-0.1694077 4.41267029-0.62922968 6.59883731l-0.04033517 0.2178099 0.04840222 0.21780988a30.21912723 30.21912723 0 0 1-8.08317247 28.33950747c-33.7202217 33.792825-57.00169513 69.29586205-58.21981821 78.89563892l-0.08873735 0.70989888 0.64536261 0.31461427c0.75023405 0.37915055 1.56500548 0.71796593 2.38784395 1.0003132 3.30748567 1.19392198 7.36520654 1.9118879 12.03602188 2.1377648l5.06609997 0.34688241L309.79967418 579.5483759l9.92245819 193.35885117a3.88024613 3.88024613 0 0 0 1.16972086 2.96060328 4.37233513 4.37233513 0 0 0 2.78312743 0.984178l116.22989468-1.47626812c16.76330646 0 30.63054589 13.41548561 30.91289203 29.88837888 0.12907253 16.82784271-13.39128449 30.62247887-30.14652392 30.7515514l-117.30281003 1.48433515-0.34688242 0c-34.68019971 0-63.50372917-28.21043494-64.23782913-62.92290169l-7.44587687-145.35997132-24.73354044-5.19517249c-34.75280303-1.08905055-72.40973895-21.32925039-72.96636534-63.17297969-0.4678879-37.1325788 41.6178524-87.18048718 66.73861156-113.71297818l0.28234612-0.29848023-0.02420109-1.201989c-1.1293857-86.01076632 31.64699316-167.41525466 92.31112341-229.24103875 60.63993028-61.79351708 141.74593729-96.44144754 228.37786625-97.54663216l4.2190615 0c176.82142162 0 322.53634241 142.90759112 324.82738086 318.5673589a30.37240085 30.37240085 0 0 1-30.12232286 30.71928326z" fill="#1296db" p-id="4727"></path><path d="M751.59104967 560.50209694l-0.91157471-3.83990983a44.43324909 44.43324909 0 0 0-14.89175372-24.03170861l-3.04127362-2.50884944 7.09092633-13.2460768-9.02701531-4.7595527-7.13126258 13.24607679-3.73503956-1.09711644a45.36095898 45.36095898 0 0 0-28.41210962 1.12131755l-3.69470439 1.38753075-10.66462517-17.05371963-8.67206587 5.59852525 10.61622301 16.98918335-2.87993295 2.70245824a44.46551722 44.46551722 0 0 0-8.80113951 11.42292626 44.64299192 44.64299192 0 0 0-4.59821204 13.5606922l-0.64536261 3.86411206-20.11919546 0.75830108 0.3630176 10.22093839 19.98205477-0.75023517 0.9115747 3.83184392a44.36064579 44.36064579 0 0 0 14.92402185 24.0317086l3.05740768 2.50884834-7.08286038 13.24607791 8.96248015 4.79182084 7.13126257-13.27027902 3.74310548 1.1051846c9.32549661 2.68632415 19.36089325 2.29103955 28.41211074-1.12131867l3.69470327-1.39559778 10.65655814 17.06985481 8.64786589-5.57432414-10.5920219-17.00531742 2.85573185-2.70245824c3.54142963-3.30748567 6.51816699-7.15546368 8.84954168-11.42292626 2.25877033-4.28359779 3.79150766-8.86567575 4.55787688-13.59296033l0.64536263-3.90444724 20.14339655-0.70183182-0.32268242-10.23707248-20.02238995 0.75830108z m-18.08630095 20.35313943a29.72703823 29.72703823 0 0 1-40.06091395 12.32643505c-8.46232411-4.7111505-21.93427783-19.04627785-12.39097133-39.54462385l0.37108351-0.70183298a29.46082503 29.46082503 0 0 1 26.12107122-15.4725801c4.81602193 0.00806703 9.59977575 1.19392197 13.86723944 3.43655934a29.28335029 29.28335029 0 0 1 14.3431955 17.384468 29.46889206 29.46889206 0 0 1-2.25070439 22.57157454z" fill="#1296db" p-id="4728"></path></svg>