<?xml version="1.0" standalone="no"?><!DOCTYPE svg PUBLIC "-//W3C//DTD SVG 1.1//EN" "http://www.w3.org/Graphics/SVG/1.1/DTD/svg11.dtd"><svg t="1574264062093" class="icon" viewBox="0 0 1024 1024" version="1.1" xmlns="http://www.w3.org/2000/svg" p-id="5761" xmlns:xlink="http://www.w3.org/1999/xlink" width="200" height="200"><defs><style type="text/css"></style></defs><path d="M844.8 578.133333c-12.8 0-21.333333 8.533333-21.333333 21.333334v185.6c0 23.466667-19.2 42.666667-42.666667 42.666666H243.2c-23.466667 0-42.666667-19.2-42.666667-42.666666V460.8c0-12.8-8.533333-21.333333-21.333333-21.333333s-21.333333 8.533333-21.333333 21.333333v322.133333c0 46.933333 38.4 85.333333 85.333333 85.333334h537.6c46.933333 0 85.333333-38.4 85.333333-85.333334V597.333333c0-10.666667-8.533333-19.2-21.333333-19.2zM870.4 166.4c-4.266667-6.4-10.666667-12.8-19.2-12.8H174.933333c-8.533333 0-14.933333 4.266667-19.2 10.666667-8.533333 19.2-87.466667 177.066667-10.666666 241.066666 59.733333 49.066667 140.8 0 181.333333-29.866666 14.933333 27.733333 46.933333 57.6 100.266667 57.6 44.8 0 72.533333-19.2 87.466666-42.666667 17.066667 23.466667 46.933333 42.666667 85.333334 42.666667 49.066667 0 78.933333-29.866667 93.866666-57.6 38.4 32 119.466667 81.066667 181.333334 32 81.066667-64 4.266667-224-4.266667-241.066667z m-21.333333 206.933333c-53.333333 42.666667-147.2-49.066667-147.2-49.066666-6.4-6.4-12.8-8.533333-21.333334-4.266667-6.4 2.133333-12.8 8.533333-14.933333 14.933333 0 2.133333-12.8 55.466667-64 55.466667s-66.133333-53.333333-68.266667-55.466667c-2.133333-8.533333-10.666667-14.933333-21.333333-14.933333h-2.133333c-10.666667 0-19.2 8.533333-19.2 19.2 0 6.4-10.666667 53.333333-64 53.333333-55.466667 0-68.266667-49.066667-70.4-55.466666-2.133333-8.533333-6.4-12.8-14.933334-17.066667-6.4-2.133333-14.933333 0-21.333333 4.266667 0 0-98.133333 89.6-149.333333 49.066666-40.533333-32-4.266667-130.133333 17.066666-174.933333h648.533334c21.333333 44.8 53.333333 142.933333 12.8 174.933333z" fill="#666666" p-id="5762"></path><path d="M844.8 499.2m-32 0a32 32 0 1 0 64 0 32 32 0 1 0-64 0Z" fill="#666666" p-id="5763"></path></svg>