<?xml version="1.0" standalone="no"?><!DOCTYPE svg PUBLIC "-//W3C//DTD SVG 1.1//EN" "http://www.w3.org/Graphics/SVG/1.1/DTD/svg11.dtd"><svg t="1574264098521" class="icon" viewBox="0 0 1025 1024" version="1.1" xmlns="http://www.w3.org/2000/svg" p-id="6483" xmlns:xlink="http://www.w3.org/1999/xlink" width="200.1953125" height="200"><defs><style type="text/css"></style></defs><path d="M585.184 804.576l365.728 0 0-73.152-365.728 0 0 73.152zM365.76 512l585.152 0 0-73.152-585.152 0 0 73.152zM731.456 219.424l219.424 0 0-73.152-219.424 0 0 73.152zM1024.032 694.848l0 146.272q0 14.848-10.848 25.728t-25.728 10.848l-950.848 0q-14.848 0-25.728-10.848t-10.848-25.728l0-146.272q0-14.848 10.848-25.728t25.728-10.848l950.848 0q14.848 0 25.728 10.848t10.848 25.728zM1024.032 402.272l0 146.272q0 14.848-10.848 25.728t-25.728 10.848l-950.848 0q-14.848 0-25.728-10.848t-10.848-25.728l0-146.272q0-14.848 10.848-25.728t25.728-10.848l950.848 0q14.848 0 25.728 10.848t10.848 25.728zM1024.032 109.728l0 146.272q0 14.848-10.848 25.728t-25.728 10.848l-950.848 0q-14.848 0-25.728-10.848t-10.848-25.728l0-146.272q0-14.848 10.848-25.728t25.728-10.848l950.848 0q14.848 0 25.728 10.848t10.848 25.728z" p-id="6484"></path></svg>