<?xml version="1.0" standalone="no"?><!DOCTYPE svg PUBLIC "-//W3C//DTD SVG 1.1//EN" "http://www.w3.org/Graphics/SVG/1.1/DTD/svg11.dtd"><svg t="1575292367207" class="icon" viewBox="0 0 1024 1024" version="1.1" xmlns="http://www.w3.org/2000/svg" p-id="14496" xmlns:xlink="http://www.w3.org/1999/xlink" width="200" height="200"><defs><style type="text/css"></style></defs><path d="M983.988233 698.840013A200.893331 200.893331 0 0 1 1023.921158 819.201945a204.374663 204.374663 0 0 1-353.252799 140.430787 457.539169 457.539169 0 0 1-524.247633-252.345369 203.401938 203.401938 0 0 1 0-390.52353A457.539169 457.539169 0 0 1 670.668359 64.418464 204.374663 204.374663 0 0 1 1023.921158 204.849251a200.893331 200.893331 0 0 1-39.932925 120.361932 456.924817 456.924817 0 0 1 0 373.62883zM204.784232 409.633482a102.392116 102.392116 0 1 0 102.392115 102.392116 102.392116 102.392116 0 0 0-102.392115-102.392116z m614.352694-307.176347a102.392116 102.392116 0 1 0 102.392116 102.392116 102.392116 102.392116 0 0 0-102.392116-102.392116z m80.377811 290.588824A201.507684 201.507684 0 0 1 819.136926 409.633482a204.784232 204.784232 0 0 1-204.784231-204.784231 190.65412 190.65412 0 0 1 5.631566-45.4621A362.314502 362.314502 0 0 0 563.156637 153.653193a357.604464 357.604464 0 0 0-300.008899 163.059444 203.453134 203.453134 0 0 1 0 390.625922A357.604464 357.604464 0 0 0 563.156637 870.398003a362.314502 362.314502 0 0 0 56.827624-5.733958A190.65412 190.65412 0 0 1 614.352695 819.201945a204.784232 204.784232 0 0 1 204.784231-204.784231 201.507684 201.507684 0 0 1 80.377811 16.587523 332.774376 332.774376 0 0 0 0-237.959278zM819.136926 716.80983a102.392116 102.392116 0 1 0 102.392116 102.392115 102.392116 102.392116 0 0 0-102.392116-102.392115z" p-id="14497" fill="#1296db"></path></svg>